<svg width="32" height="32" viewBox="0 0 32 32" fill="none" xmlns="http://www.w3.org/2000/svg">
<path d="M16 27.9344L15.2594 27.4594C15.1375 27.3844 12.2687 25.5344 9.36562 22.8563C7.31875 20.9656 5.7 19.15 4.55312 17.4594C3.11562 15.3406 2.5 13.3781 2.5 12.0469C2.5 8.19064 5.90312 3.90627 10.7594 3.90627C13.0437 3.90627 15.025 5.18127 16 7.04377C16.975 5.18127 18.9563 3.90627 21.2406 3.90627C26.0969 3.90627 29.5 8.19064 29.5 12.0469C29.5 13.3781 28.8844 15.3406 27.4469 17.4594C26.3 19.15 24.6812 20.9656 22.6344 22.8563C19.7313 25.5344 16.8625 27.3844 16.7406 27.4594L16 27.9344Z" fill="#1FB588"/>
</svg>
